<svg width="48" height="32" viewBox="0 0 48 32" fill="none" xmlns="http://www.w3.org/2000/svg">
<path d="M47.7385 28.168C47.5647 27.993 47.3417 27.9062 47.0702 27.9062H19.1593C18.888 27.9062 18.665 27.9931 18.4906 28.168C18.3163 28.3422 18.2294 28.5648 18.2294 28.8363V30.6972C18.2294 30.9683 18.3163 31.1914 18.4906 31.3655C18.665 31.5398 18.888 31.6272 19.1593 31.6272H47.0702C47.3417 31.6272 47.5647 31.5398 47.7385 31.3655C47.9128 31.1913 47.9999 30.9683 47.9999 30.6972V28.8363C48.0003 28.5648 47.9136 28.3422 47.7385 28.168Z" fill="#6D6D6D"/>
<path d="M3.08135 0.663392C2.88756 0.469605 2.66455 0.372559 2.41262 0.372559C2.16068 0.372559 1.93798 0.469605 1.74429 0.663392L0.290426 2.11736C0.0967409 2.31104 0 2.53375 0 2.78589C0 3.03823 0.0967409 3.26084 0.290426 3.45462L11.7169 14.8807L0.290426 26.307C0.0967409 26.5008 0 26.7238 0 26.9754C0 27.2277 0.0967409 27.4504 0.290426 27.6441L1.74419 29.0976C1.93798 29.2917 2.16058 29.3882 2.41251 29.3882C2.66445 29.3882 2.88756 29.2914 3.08125 29.0976L16.6299 15.5493C16.8237 15.3556 16.9204 15.1322 16.9204 14.8802C16.9204 14.6284 16.8237 14.4054 16.6299 14.2117L3.08135 0.663392Z" fill="#6D6D6D"/>
</svg>
