<svg width="31" height="20" viewBox="0 0 31 20" fill="none" xmlns="http://www.w3.org/2000/svg">
<path d="M30.5045 2.51802L29.4891 1.49552C29.1695 1.17619 28.7443 1.00027 28.2899 1.00027C27.8357 1.00027 27.41 1.17619 27.0904 1.49552L15.5069 13.0795L3.91006 1.48267C3.59099 1.16334 3.1653 0.987671 2.71114 0.987671C2.25697 0.987671 1.83103 1.16334 1.5117 1.48267L0.496004 2.49887C-0.165335 3.1597 -0.165335 4.23615 0.496004 4.89698L14.3035 18.7541C14.6225 19.0732 15.0477 19.298 15.5059 19.298H15.5112C15.9656 19.298 16.3908 19.0729 16.7099 18.7541L30.5045 4.93453C30.8241 4.61546 30.9995 4.17742 31 3.72325C31 3.26884 30.8241 2.83685 30.5045 2.51802Z" fill="#6D6D6D"/>
</svg>
