<svg width="408" height="408" viewBox="0 0 408 408" fill="none" xmlns="http://www.w3.org/2000/svg">
<path d="M156.188 288.469H140.25C124.87 288.469 112.359 300.979 112.359 316.359V380.109C112.359 395.49 124.87 408 140.25 408H156.188C171.568 408 184.078 395.49 184.078 380.109V316.359C184.078 300.979 171.568 288.469 156.188 288.469ZM160.172 380.109C160.172 382.307 158.385 384.094 156.188 384.094H140.25C138.052 384.094 136.266 382.307 136.266 380.109V316.359C136.266 314.162 138.052 312.375 140.25 312.375H156.188C158.385 312.375 160.172 314.162 160.172 316.359V380.109Z" fill="#DDD4D4"/>
<path d="M60.5625 384.094H48.6094V300.422C48.6094 293.82 43.2585 288.469 36.6562 288.469H12.75C6.14777 288.469 0.796875 293.82 0.796875 300.422C0.796875 307.024 6.14777 312.375 12.75 312.375H24.7031V384.094H12.75C6.14777 384.094 0.796875 389.445 0.796875 396.047C0.796875 402.649 6.14777 408 12.75 408H60.5625C67.1647 408 72.5156 402.649 72.5156 396.047C72.5156 389.445 67.1647 384.094 60.5625 384.094Z" fill="#DDD4D4"/>
<path d="M379.312 288.469H363.375C347.995 288.469 335.484 300.979 335.484 316.359V380.109C335.484 395.49 347.995 408 363.375 408H379.312C394.693 408 407.203 395.49 407.203 380.109V316.359C407.203 300.979 394.693 288.469 379.312 288.469ZM383.297 380.109C383.297 382.307 381.51 384.094 379.312 384.094H363.375C361.177 384.094 359.391 382.307 359.391 380.109V316.359C359.391 314.162 361.177 312.375 363.375 312.375H379.312C381.51 312.375 383.297 314.162 383.297 316.359V380.109Z" fill="#DDD4D4"/>
<path d="M283.688 384.094H271.734V300.422C271.734 293.82 266.383 288.469 259.781 288.469H235.875C229.273 288.469 223.922 293.82 223.922 300.422C223.922 307.024 229.273 312.375 235.875 312.375H247.828V384.094H235.875C229.273 384.094 223.922 389.445 223.922 396.047C223.922 402.649 229.273 408 235.875 408H283.688C290.29 408 295.641 402.649 295.641 396.047C295.641 389.445 290.29 384.094 283.688 384.094Z" fill="#DDD4D4"/>
<path d="M156.188 144.234H140.25C124.87 144.234 112.359 156.745 112.359 172.125V235.875C112.359 251.255 124.87 263.766 140.25 263.766H156.188C171.568 263.766 184.078 251.255 184.078 235.875V172.125C184.078 156.745 171.568 144.234 156.188 144.234ZM160.172 235.875C160.172 238.073 158.385 239.859 156.188 239.859H140.25C138.052 239.859 136.266 238.073 136.266 235.875V172.125C136.266 169.927 138.052 168.141 140.25 168.141H156.188C158.385 168.141 160.172 169.927 160.172 172.125V235.875Z" fill="#DDD4D4"/>
<path d="M60.5625 239.859H48.6094V156.188C48.6094 149.585 43.2585 144.234 36.6562 144.234H12.75C6.14777 144.234 0.796875 149.585 0.796875 156.188C0.796875 162.79 6.14777 168.141 12.75 168.141H24.7031V239.859H12.75C6.14777 239.859 0.796875 245.21 0.796875 251.812C0.796875 258.415 6.14777 263.766 12.75 263.766H60.5625C67.1647 263.766 72.5156 258.415 72.5156 251.812C72.5156 245.21 67.1647 239.859 60.5625 239.859Z" fill="#DDD4D4"/>
<path d="M267.75 144.234H251.812C236.432 144.234 223.922 156.745 223.922 172.125V235.875C223.922 251.255 236.432 263.766 251.812 263.766H267.75C283.13 263.766 295.641 251.255 295.641 235.875V172.125C295.641 156.745 283.13 144.234 267.75 144.234ZM271.734 235.875C271.734 238.073 269.948 239.859 267.75 239.859H251.812C249.615 239.859 247.828 238.073 247.828 235.875V172.125C247.828 169.927 249.615 168.141 251.812 168.141H267.75C269.948 168.141 271.734 169.927 271.734 172.125V235.875Z" fill="#DDD4D4"/>
<path d="M395.25 239.859H383.297V156.188C383.297 149.585 377.946 144.234 371.344 144.234H347.438C340.835 144.234 335.484 149.585 335.484 156.188C335.484 162.79 340.835 168.141 347.438 168.141H359.391V239.859H347.438C340.835 239.859 335.484 245.21 335.484 251.812C335.484 258.415 340.835 263.766 347.438 263.766H395.25C401.852 263.766 407.203 258.415 407.203 251.812C407.203 245.21 401.852 239.859 395.25 239.859Z" fill="#DDD4D4"/>
<path d="M44.625 0H28.6875C13.3072 0 0.796875 12.5103 0.796875 27.8906V91.6406C0.796875 107.021 13.3072 119.531 28.6875 119.531H44.625C60.0053 119.531 72.5156 107.021 72.5156 91.6406V27.8906C72.5156 12.5103 60.0053 0 44.625 0ZM48.6094 91.6406C48.6094 93.8383 46.8226 95.625 44.625 95.625H28.6875C26.4899 95.625 24.7031 93.8383 24.7031 91.6406V27.8906C24.7031 25.693 26.4899 23.9062 28.6875 23.9062H44.625C46.8226 23.9062 48.6094 25.693 48.6094 27.8906V91.6406Z" fill="#DDD4D4"/>
<path d="M172.125 95.625H160.172V11.9531C160.172 5.35089 154.821 0 148.219 0H124.312C117.71 0 112.359 5.35089 112.359 11.9531C112.359 18.5554 117.71 23.9062 124.312 23.9062H136.266V95.625H124.312C117.71 95.625 112.359 100.976 112.359 107.578C112.359 114.18 117.71 119.531 124.312 119.531H172.125C178.727 119.531 184.078 114.18 184.078 107.578C184.078 100.976 178.727 95.625 172.125 95.625Z" fill="#DDD4D4"/>
<path d="M379.312 0H363.375C347.995 0 335.484 12.5103 335.484 27.8906V91.6406C335.484 107.021 347.995 119.531 363.375 119.531H379.312C394.693 119.531 407.203 107.021 407.203 91.6406V27.8906C407.203 12.5103 394.693 0 379.312 0ZM383.297 91.6406C383.297 93.8383 381.51 95.625 379.312 95.625H363.375C361.177 95.625 359.391 93.8383 359.391 91.6406V27.8906C359.391 25.693 361.177 23.9062 363.375 23.9062H379.312C381.51 23.9062 383.297 25.693 383.297 27.8906V91.6406Z" fill="#DDD4D4"/>
<path d="M283.688 95.625H271.734V11.9531C271.734 5.35089 266.383 0 259.781 0H235.875C229.273 0 223.922 5.35089 223.922 11.9531C223.922 18.5554 229.273 23.9062 235.875 23.9062H247.828V95.625H235.875C229.273 95.625 223.922 100.976 223.922 107.578C223.922 114.18 229.273 119.531 235.875 119.531H283.688C290.29 119.531 295.641 114.18 295.641 107.578C295.641 100.976 290.29 95.625 283.688 95.625Z" fill="#DDD4D4"/>
</svg>
