<svg width="18" height="9" viewBox="0 0 18 9" fill="none" xmlns="http://www.w3.org/2000/svg">
<path d="M17.8901 4.30116L12.2651 0.0824041C12.1186 -0.027468 11.8813 -0.027468 11.7349 0.0824041C11.5884 0.192276 11.5884 0.370255 11.7349 0.480101L16.7197 4.21876H0.375011C0.16773 4.21876 0 4.34456 0 4.50002C0 4.65548 0.16773 4.78128 0.375011 4.78128H16.7197L11.7349 8.51991C11.5884 8.62978 11.5884 8.80776 11.7349 8.9176C11.8081 8.97253 11.9041 9 12 9C12.096 9 12.1919 8.97253 12.2652 8.9176L17.8902 4.69885C18.0366 4.58901 18.0366 4.41103 17.8901 4.30116Z" fill="#ECECEC"/>
</svg>
